PathFileType	4	(x/y/z)	S05_M20_T02
DataRate	CameraRate	NumFrames	NumMarkers	Units	OrigDataRate	OrigDataStartFrame	OrigNumFrames
240	240	11	50	mm	240	137	546
Frame#	Time	Sternum			R.Acromium			L.Acromium			Top.Head			R.ASIS			L.ASIS			R.PSIS			L.PSIS			R.Great.Tro			L.Great.Tro			R.Iliac.Crest			L.Iliac.Crest			V.Sacral			R.Thigh.Upper.Post			R.Thigh.Lower.Ant			R.Thigh.Lower.Post			R.Thigh.Upper.Ant			R.Knee.Lat			R.Knee.Med			R.Shank.Upper.Post			R.Shank.Lower.Ant			R.Shank.Lower.Post			R.Shank.Upper.Ant			R.Ankle.Lat			R.Ankle.Med			R.Heel.Upper			R.Heel.Med			R.Heel.Lat			R.Toe.Lat			R.Toe.Med			R.Toe.Tip			L.Thigh.Upper.Post			L.Thigh.Lower.Ant			L.Thigh.Lower.Post			L.Thigh.Upper.Ant			L.Knee.Lat			L.Shank.Upper.Post			L.Shank.Lower.Ant			L.Shank.Lower.Post			L.Shank.Upper.Ant			L.Ankle.Lat			L.Ankle.Med			L.Heel.Upper			L.Heel.Med			L.Heel.Lat			L.Toe.Lat			L.Toe.Med			L.Toe.Tip			Cervical.Spine			Back			
		X1	Y1	Z1	X2	Y2	Z2	X3	Y3	Z3	X4	Y4	Z4	X5	Y5	Z5	X6	Y6	Z6	X7	Y7	Z7	X8	Y8	Z8	X9	Y9	Z9	X10	Y10	Z10	X11	Y11	Z11	X12	Y12	Z12	X13	Y13	Z13	X14	Y14	Z14	X15	Y15	Z15	X16	Y16	Z16	X17	Y17	Z17	X18	Y18	Z18	X19	Y19	Z19	X20	Y20	Z20	X21	Y21	Z21	X22	Y22	Z22	X23	Y23	Z23	X24	Y24	Z24	X25	Y25	Z25	X26	Y26	Z26	X27	Y27	Z27	X28	Y28	Z28	X29	Y29	Z29	X30	Y30	Z30	X31	Y31	Z31	X32	Y32	Z32	X33	Y33	Z33	X34	Y34	Z34	X35	Y35	Z35	X36	Y36	Z36	X37	Y37	Z37	X38	Y38	Z38	X39	Y39	Z39	X40	Y40	Z40	X41	Y41	Z41	X42	Y42	Z42	X43	Y43	Z43	X44	Y44	Z44	X45	Y45	Z45	X46	Y46	Z46	X47	Y47	Z47	X48	Y48	Z48	X49	Y49	Z49	X50	Y50	Z50	

137	0.56667	-181.97	1260.1	257.91	-263.75	1525.4	409.69	-273.85	1534.7	76.59	-260.13	1825.8	240.5	-246.94	1011.7	383.76	-258.61	1011.4	134.71	-451.77	1029.6	312.36	-455.48	1037.4	221.26	-314.13	939.9	459.91	-361.66	939.43	70.424	-331.43	1096.3	429.36	-347.55	1091.5	93.97	-466.91	998.21	278.66	-137.04	783.82	462.71	-58.5	756.38	403.11	-92.993	706.45	443.75	-106.82	829.93	421.01	-49.784	621.78	423.31	-40.183	613.61	292.37	-74.966	371.16	400.81	-0.85123	319.19	399.34	-60.133	297.58	381.15	-15.522	393.7	417.09	1.2774	214.36	377.25	15.995	250.16	292.71	-43.75	141.85	310.95	-19.786	119.07	282.62	-25.253	116.04	346.64	129.52	162.01	408.28	162.15	192.66	295.08	210.96	230.87	345.05	-398.36	701.78	87.637	-330	616.89	107.93	-401.63	608.19	108.25	-319.78	705.12	84.916	-404.97	516.38	119.18	-501.59	327.83	133.73	-445.06	259.27	135.65	-514.26	259.09	155.44	-436.3	328.15	119.49	-502.8	119.57	168.51	-465.52	132.36	253.15	-562.84	69.728	226.22	-552.14	45.283	258.24	-564.09	43.501	197.51	-384.74	34.79	132.8	-355.5	49.698	251.46	-294.8	56.304	193.35	-320.77	1568.6	248.74	-444.93	1297.1	255.06
138	0.57083	-177.38	1259.3	257.84	-259.02	1524.5	410	-269.3	1534	76.946	-255.47	1825	241.07	-241.86	1010.7	383.51	-254.26	1010.7	134.5	-446.86	1028.8	312.69	-450.84	1036.8	221.62	-309.03	938.84	459.75	-357.78	939.01	70.496	-326.26	1095.3	429.41	-343.3	1090.9	94.043	-462.13	997.54	278.99	-132.69	781.83	462.31	-54.4	754.11	402.51	-88.992	704.3	443.25	-102.41	827.82	420.51	-45.846	619.72	422.58	-36.219	611.48	291.55	-65.856	368.66	400.64	9.2663	318.33	399.52	-49.326	295.38	381.11	-7.1087	392.52	417.06	14.163	213.4	377.72	28.173	249.31	293.15	-29.074	139.74	311.54	-4.5354	117.47	283.29	-10.01	114.42	347.33	143.57	164.07	409.11	175.62	195.24	295.84	223.48	234.64	345.81	-395.83	701.7	87.648	-327.94	616.42	107.94	-399.61	608.14	108.28	-317.24	704.57	84.832	-403.63	516.28	119.29	-500.94	328.05	133.93	-444.64	259.3	135.73	-513.81	259.37	155.64	-435.67	328.15	119.59	-502.65	119.65	168.64	-465.32	132.35	253.29	-562.72	69.757	226.34	-552.08	45.298	258.35	-564.04	43.604	197.61	-384.74	34.785	132.79	-355.44	49.631	251.45	-294.75	56.208	193.33	-316.18	1567.7	249.13	-440.3	1296.3	255.37
139	0.575	-172.78	1258.4	257.78	-254.26	1523.4	410.32	-264.71	1533.3	77.313	-250.8	1824.1	241.66	-236.75	1009.7	383.26	-249.88	1010	134.29	-441.93	1028.1	313.02	-446.19	1036.2	221.99	-303.91	937.71	459.59	-353.86	938.54	70.56	-321.07	1094.3	429.47	-339.03	1090.2	94.122	-457.34	996.83	279.32	-128.36	779.72	461.91	-50.338	751.7	401.92	-85.041	702.03	442.73	-98.004	825.59	420.02	-41.968	617.55	421.84	-32.318	609.23	290.69	-56.851	366.18	400.51	19.228	317.51	399.73	-38.642	293.23	381.13	1.1786	391.34	417.05	26.871	212.53	378.24	40.168	248.53	293.64	-14.571	137.76	312.2	10.519	116	284.04	5.044	112.95	348.09	157.37	166.24	409.97	188.81	197.88	296.62	235.72	238.44	346.59	-393.26	701.59	87.67	-325.84	615.92	107.97	-397.54	608.06	108.31	-314.66	703.99	84.764	-402.24	516.16	119.41	-500.25	328.27	134.13	-444.19	259.32	135.82	-513.33	259.64	155.85	-435	328.14	119.69	-502.5	119.73	168.78	-465.12	132.34	253.44	-562.6	69.79	226.48	-552.03	45.309	258.47	-563.99	43.708	197.71	-384.73	34.786	132.78	-355.37	49.557	251.45	-294.71	56.106	193.31	-311.56	1566.8	249.55	-435.66	1295.4	255.69
140	0.57917	-168.16	1257.5	257.73	-249.49	1522.3	410.67	-260.08	1532.6	77.692	-246.12	1823.1	242.27	-231.63	1008.7	383.01	-245.49	1009.2	134.09	-436.97	1027.2	313.35	-441.51	1035.5	222.36	-298.78	936.51	459.43	-349.91	938.04	70.617	-315.86	1093.2	429.53	-334.74	1089.5	94.207	-452.52	996.07	279.65	-124.07	777.49	461.5	-46.309	749.17	401.32	-81.137	699.63	442.21	-93.614	823.24	419.53	-38.146	615.28	421.09	-28.476	606.88	289.8	-47.96	363.75	400.43	29.027	316.72	399.97	-28.096	291.16	381.2	9.3356	390.18	417.05	39.386	211.75	378.81	51.97	247.81	294.16	-0.26084	135.91	312.93	25.359	114.66	284.86	19.89	111.62	348.91	170.91	168.5	410.89	201.72	200.58	297.42	247.67	242.27	347.39	-390.65	701.44	87.705	-323.69	615.41	108.02	-395.44	607.96	108.36	-312.04	703.39	84.713	-400.81	516.02	119.54	-499.53	328.48	134.33	-443.71	259.33	135.93	-512.83	259.91	156.07	-434.3	328.12	119.81	-502.34	119.8	168.93	-464.91	132.32	253.61	-562.5	69.827	226.62	-551.97	45.314	258.59	-563.94	43.812	197.81	-384.73	34.79	132.78	-355.3	49.475	251.45	-294.65	55.997	193.29	-306.93	1565.9	249.97	-430.99	1294.5	256.03
141	0.58333	-163.52	1256.6	257.68	-244.69	1521.2	411.02	-255.42	1531.8	78.085	-241.44	1822.2	242.88	-226.49	1007.5	382.77	-241.06	1008.4	133.9	-432	1026.4	313.68	-436.8	1034.8	222.74	-293.62	935.25	459.27	-345.92	937.51	70.664	-310.62	1092.1	429.6	-330.43	1088.8	94.297	-447.68	995.27	279.98	-119.8	775.15	461.09	-42.309	746.52	400.72	-77.276	697.11	441.67	-89.234	820.78	419.05	-34.373	612.91	420.33	-24.687	604.43	288.89	-39.192	361.35	400.39	38.657	315.96	400.23	-17.701	289.14	381.31	17.358	389.02	417.06	51.694	211.06	379.43	63.568	247.16	294.72	13.837	134.18	313.72	39.966	113.45	285.74	34.507	110.43	349.8	184.16	170.84	411.84	214.35	203.32	298.25	259.32	246.1	348.2	-387.99	701.27	87.75	-321.51	614.87	108.09	-393.29	607.83	108.43	-309.38	702.76	84.678	-399.33	515.87	119.68	-498.77	328.68	134.55	-443.2	259.33	136.05	-512.3	260.16	156.29	-433.56	328.08	119.95	-502.17	119.88	169.09	-464.7	132.29	253.8	-562.4	69.866	226.78	-551.9	45.316	258.71	-563.89	43.916	197.93	-384.73	34.798	132.79	-355.23	49.386	251.46	-294.6	55.88	193.28	-302.27	1564.9	250.42	-426.31	1293.5	256.38
142	0.5875	-158.86	1255.5	257.64	-239.87	1520	411.4	-250.72	1530.9	78.492	-236.74	1821.1	243.51	-221.33	1006.4	382.53	-236.62	1007.5	133.72	-427	1025.4	314	-432.08	1034	223.11	-288.44	933.93	459.11	-341.9	936.93	70.704	-305.37	1091	429.68	-326.09	1088	94.393	-442.81	994.43	280.31	-115.55	772.71	460.67	-38.334	743.76	400.12	-73.451	694.49	441.12	-84.859	818.21	418.58	-30.645	610.46	419.57	-20.946	601.89	287.96	-30.555	358.99	400.39	48.11	315.24	400.52	-7.4725	287.19	381.48	25.242	387.88	417.09	63.78	210.44	380.08	74.952	246.55	295.32	27.703	132.58	314.56	54.321	112.37	286.67	48.873	109.36	350.73	197.11	173.23	412.84	226.67	206.08	299.1	270.66	249.93	349.04	-385.29	701.07	87.807	-319.29	614.31	108.17	-391.1	607.67	108.51	-306.68	702.1	84.658	-397.8	515.7	119.83	-497.97	328.88	134.77	-442.66	259.32	136.18	-511.74	260.4	156.52	-432.78	328.04	120.09	-501.99	119.95	169.25	-464.48	132.26	253.99	-562.3	69.908	226.95	-551.83	45.313	258.85	-563.83	44.02	198.06	-384.72	34.811	132.8	-355.16	49.289	251.47	-294.54	55.755	193.27	-297.59	1563.9	250.89	-421.62	1292.5	256.74
143	0.59167	-154.19	1254.5	257.61	-235.03	1518.8	411.79	-246.01	1530.1	78.915	-232.05	1820.1	244.16	-216.15	1005.2	382.3	-232.15	1006.6	133.54	-421.98	1024.5	314.33	-427.33	1033.2	223.48	-283.24	932.54	458.95	-337.84	936.32	70.735	-300.1	1089.7	429.76	-321.73	1087.2	94.495	-437.92	993.54	280.64	-111.32	770.18	460.25	-34.378	740.89	399.52	-69.66	691.77	440.56	-80.486	815.55	418.1	-26.953	607.94	418.81	-17.247	599.27	287	-22.059	356.67	400.43	57.379	314.54	400.83	2.5779	285.3	381.7	32.983	386.74	417.12	75.631	209.9	380.77	86.112	246	295.95	41.318	131.09	315.45	68.405	111.4	287.65	62.965	108.42	351.72	209.74	175.67	413.88	238.69	208.85	299.97	281.7	253.72	349.89	-382.54	700.84	87.875	-317.02	613.73	108.27	-388.86	607.49	108.6	-303.93	701.41	84.652	-396.22	515.51	119.99	-497.13	329.07	134.99	-442.09	259.3	136.32	-511.15	260.63	156.75	-431.97	327.98	120.25	-501.81	120.03	169.43	-464.25	132.23	254.2	-562.2	69.951	227.12	-551.76	45.308	258.99	-563.78	44.124	198.19	-384.72	34.827	132.81	-355.08	49.185	251.49	-294.47	55.622	193.27	-292.89	1562.8	251.37	-416.9	1291.5	257.11
144	0.59583	-149.49	1253.4	257.58	-230.16	1517.6	412.2	-241.28	1529.1	79.355	-227.34	1819	244.82	-210.95	1003.9	382.08	-227.66	1005.7	133.37	-416.94	1023.5	314.66	-422.55	1032.3	223.86	-278.01	931.1	458.79	-333.74	935.68	70.758	-294.81	1088.5	429.85	-317.34	1086.3	94.602	-433.01	992.61	280.97	-107.1	767.57	459.82	-30.438	737.94	398.92	-65.895	688.96	439.99	-76.111	812.81	417.64	-23.294	605.36	418.05	-13.583	596.58	286.03	-13.71	354.39	400.49	66.459	313.86	401.17	12.438	283.47	381.96	40.579	385.61	417.17	87.23	209.43	381.49	97.038	245.49	296.6	54.662	129.72	316.38	82.197	110.53	288.66	76.762	107.59	352.75	222.05	178.12	414.95	250.4	211.6	300.88	292.43	257.46	350.78	-379.75	700.58	87.954	-314.71	613.12	108.38	-386.58	607.29	108.7	-301.14	700.7	84.658	-394.59	515.31	120.15	-496.25	329.25	135.22	-441.49	259.27	136.47	-510.52	260.86	156.99	-431.12	327.91	120.41	-501.61	120.1	169.62	-464.01	132.19	254.41	-562.11	69.997	227.31	-551.68	45.3	259.14	-563.72	44.228	198.33	-384.71	34.846	132.83	-354.99	49.075	251.51	-294.4	55.48	193.27	-288.17	1561.7	251.87	-412.17	1290.4	257.5
145	0.6	-144.78	1252.3	257.57	-225.27	1516.3	412.62	-236.53	1528.2	79.812	-222.63	1817.8	245.49	-205.73	1002.7	381.86	-223.14	1004.7	133.21	-411.87	1022.4	314.99	-417.75	1031.5	224.24	-272.76	929.6	458.63	-329.6	935	70.774	-289.5	1087.2	429.94	-312.93	1085.4	94.715	-428.08	991.64	281.3	-102.89	764.88	459.39	-26.508	734.9	398.31	-62.152	686.07	439.41	-71.731	809.99	417.17	-19.66	602.72	417.29	-9.9471	593.84	285.05	-5.516	352.15	400.57	75.343	313.2	401.53	22.096	281.7	382.26	48.025	384.48	417.23	98.565	209.01	382.23	107.72	245.02	297.28	67.713	128.45	317.34	95.678	109.77	289.71	90.242	106.86	353.8	234.02	180.56	416.04	261.79	214.32	301.8	302.85	261.12	351.68	-376.91	700.29	88.043	-312.35	612.49	108.5	-384.26	607.06	108.81	-298.31	699.97	84.674	-392.91	515.09	120.32	-495.34	329.42	135.44	-440.85	259.23	136.62	-509.87	261.08	157.23	-430.23	327.83	120.58	-501.4	120.18	169.82	-463.76	132.15	254.64	-562.02	70.044	227.51	-551.6	45.292	259.3	-563.66	44.331	198.49	-384.71	34.868	132.85	-354.91	48.958	251.53	-294.33	55.33	193.27	-283.42	1560.6	252.39	-407.41	1289.3	257.9
146	0.60417	-140.05	1251.1	257.56	-220.36	1514.9	413.06	-231.78	1527.2	80.287	-217.91	1816.7	246.18	-200.49	1001.3	381.64	-218.6	1003.7	133.06	-406.79	1021.3	315.32	-412.93	1030.5	224.62	-267.48	928.04	458.47	-325.42	934.29	70.783	-284.18	1085.9	430.04	-308.49	1084.5	94.833	-423.12	990.62	281.63	-98.675	762.14	458.95	-22.582	731.8	397.7	-58.423	683.12	438.82	-67.341	807.1	416.71	-16.045	600.04	416.54	-6.3329	591.04	284.06	2.5164	349.95	400.67	84.024	312.55	401.91	31.542	279.98	382.59	55.319	383.36	417.31	109.62	208.64	383	118.15	244.58	297.98	80.453	127.28	318.32	108.83	109.08	290.78	103.38	106.22	354.87	245.63	182.97	417.16	272.86	216.97	302.75	312.95	264.68	352.61	-374.02	699.98	88.141	-309.95	611.85	108.63	-381.88	606.81	108.93	-295.44	699.21	84.698	-391.18	514.85	120.49	-494.38	329.59	135.67	-440.18	259.19	136.78	-509.18	261.3	157.46	-429.3	327.73	120.75	-501.19	120.27	170.02	-463.5	132.11	254.87	-561.92	70.094	227.72	-551.51	45.284	259.47	-563.6	44.435	198.65	-384.7	34.893	132.87	-354.81	48.835	251.56	-294.26	55.173	193.28	-278.65	1559.4	252.92	-402.64	1288.1	258.31
147	0.60833	-135.29	1249.9	257.57	-215.42	1513.5	413.52	-227.02	1526.2	80.78	-213.18	1815.5	246.88	-195.23	999.97	381.44	-214.03	1002.6	132.91	-401.68	1020.2	315.66	-408.08	1029.6	225	-262.18	926.44	458.32	-321.21	933.55	70.788	-278.84	1084.5	430.15	-304.02	1083.5	94.957	-418.14	989.57	281.96	-94.458	759.34	458.51	-18.656	728.64	397.09	-54.702	680.12	438.22	-62.94	804.17	416.25	-12.441	597.33	415.81	-2.7329	588.21	283.07	10.381	347.78	400.77	92.497	311.9	402.31	40.767	278.31	382.95	62.46	382.23	417.39	120.39	208.29	383.77	128.32	244.16	298.69	92.861	126.18	319.31	121.62	108.47	291.87	116.16	105.65	355.95	256.88	185.32	418.3	283.6	219.54	303.72	322.74	268.11	353.56	-371.09	699.64	88.246	-307.5	611.18	108.76	-379.46	606.53	109.06	-292.52	698.42	84.727	-389.39	514.59	120.65	-493.38	329.75	135.9	-439.48	259.13	136.94	-508.46	261.51	157.7	-428.32	327.63	120.93	-500.96	120.36	170.23	-463.23	132.08	255.1	-561.82	70.146	227.94	-551.42	45.279	259.64	-563.54	44.538	198.83	-384.7	34.919	132.9	-354.72	48.707	251.59	-294.18	55.008	193.29	-273.85	1558.2	253.48	-397.85	1286.9	258.74
